<svg xmlns="http://www.w3.org/2000/svg" version="1.1" xmlns:xlink="http://www.w3.org/1999/xlink" width="2000" height="459" viewBox="0 0 2000 459"><svg xml:space="preserve" width="2000" height="459" data-version="2" data-id="lg_pYP5XluF4lcwyALxyb" viewBox="0 0 528 121" x="0" y="0">
    <path fill="#8264F6" d="M176.665 50.98q-.08 4.86-.08 14.91 0 12.07.16 17.49h-19.12l.08-9.15q.17-15.07.17-23.25 0-7.77-.17-22.03l-.08-8.75h19.12q-.16 11.5-.16 18.79 0 8.1.08 11.99"></path>
    <rect width="19.12" height="63.18" x="-9.56" y="-31.59" fill="none" rx="0" ry="0" transform="matrix(1 0 0 1 167.685 52.29)"></rect>
    <path fill="#8264F6" d="M209.305 84.19q-13.85 0-20.37-6.36-6.52-6.35-6.52-16.72 0-10.13 6.52-16.45 6.52-6.31 20.37-6.31 9.32 0 15.59 3.03 6.28 3.04 9.28 8.19 2.99 5.14 2.99 11.54 0 10.45-6.92 16.76-6.93 6.32-20.94 6.32m.32-13.77q5.27 0 7.86-2.51 2.59-2.51 2.59-6.72 0-3.97-2.59-6.52-2.59-2.55-7.86-2.55-5.26 0-7.69 2.51-2.43 2.51-2.43 6.56 0 4.21 2.43 6.72t7.69 2.51"></path>
    <rect width="54.75" height="45.84" x="-27.375" y="-22.92" fill="none" rx="0" ry="0" transform="matrix(1 0 0 1 210.29 61.77)"></rect>
    <path fill="#8264F6" d="M281.075 39.16h15.55q-.41 13.28-.41 37.74 0 9.64-3.84 15.8-3.85 6.15-10.17 8.95-6.32 2.79-14.09 2.79-7.7 0-13.77-2.22-6.08-2.23-9.24-5.96l3.65-12.39q4.37 2.51 8.26 3.6 3.89 1.1 8.1 1.1 13.77 0 13.77-11.67 0-1.7.08-2.43 0-.48.04-1.29t-.04-2.11q-4.13 11.5-17.5 11.5-5.42 0-9.68-2.91-4.25-2.92-6.6-7.9-2.35-4.98-2.35-10.98 0-6.15 2.35-11.3 2.35-5.14 6.56-8.14 4.22-2.99 9.48-2.99 13.69 0 17.82 9.64Zm-11.18 30.45q1.86 0 3.89-.85 2.02-.85 3.48-2.75 1.46-1.91 1.46-4.74 0-5.02-2.27-7.17-2.27-2.15-6.72-2.15-3.89 0-6.16 2.6-2.27 2.59-2.27 6.72 0 3.73 2.47 6.03 2.47 2.31 6.12 2.31"></path>
    <rect width="53.79" height="66.09" x="-26.895" y="-33.045" fill="none" rx="0" ry="0" transform="matrix(1 0 0 1 270.23 71.895)"></rect>
    <path fill="#8264F6" d="M313.955 34.38q-5.1 0-7.57-2.51-2.47-2.51-2.47-6.56 0-3.97 2.47-6.57 2.47-2.59 7.57-2.59 4.86 0 7.45 2.64 2.6 2.63 2.6 6.52 0 4.05-2.51 6.56-2.52 2.51-7.54 2.51m-9.39 49q.56-13.04.56-21.54 0-10.13-.64-22.68h19.44q-.65 12.07-.65 22.68 0 8.91.56 21.54Z"></path>
    <rect width="20.09" height="67.23" x="-10.045" y="-33.615" fill="none" rx="0" ry="0" transform="matrix(1 0 0 1 314.46 50.265)"></rect>
    <path fill="#8264F6" d="M357.455 84.19q-6.8 0-13.81-1.9-7.01-1.9-13.16-5.79l8.5-11.59q3.73 2.68 8.99 4.18 5.27 1.49 9.07 1.49 3.65 0 5.63-1.01 1.99-1.01 1.99-2.63 0-1.3-.97-2.03-.98-.72-2.68-.72-1.05 0-2.39.08-1.33.08-2.14.16-4.21.48-8.67.48-7.21 0-11.7-2.71-4.5-2.71-4.5-8.87 0-7.13 6.72-11.05 6.73-3.93 19.77-3.93 6.4 0 12.92 1.82t11.54 5.47l-9.32 9.39q-4.61-2.43-8.62-3.44-4.01-1.01-8.06-1.01-2.84 0-4.86 1.13-2.03 1.14-2.03 2.59 0 1.14.85 1.79.85.64 2.23.64t3.81-.24q5.91-.4 8.83-.4 8.42 0 13.04 2.83 4.62 2.84 4.62 8.67 0 8.75-6.81 12.67-6.8 3.93-18.79 3.93"></path>
    <rect width="52.57" height="45.84" x="-26.285" y="-22.92" fill="none" rx="0" ry="0" transform="matrix(1 0 0 1 357.27 61.77)"></rect>
    <path fill="#8264F6" d="M423.795 53.66q-7.45-.49-13.61-.73l-.08 8.58q0 4.38 1.9 6.85 1.91 2.47 6.77 2.47 1.86 0 3.56-.33-.32 3-.32 6.08 0 1.46.16 6.64-3.57.65-6 .81-2.43.16-6.31.16-9.48 0-13.41-4.57-3.93-4.58-3.93-12.76l.08-13.69q-3.8.16-7.93.49V39.32q4.21 0 7.12-2.67 2.92-2.68 3.49-6.4h22.03q-4.13 5.67-9.15 9.07h15.63Z"></path>
    <rect width="39.12" height="53.94" x="-19.56" y="-26.97" fill="none" rx="0" ry="0" transform="matrix(1 0 0 1 404.735 57.72)"></rect>
    <path fill="#8264F6" d="M447.445 51.14q3.4-12.23 16.93-12.23 2.35 0 4.54.33l-2.6 18.14q-5.83-2.19-9.55-2.19-4.62 0-6.81 2.76-2.19 2.75-2.19 7.37v-.08l-.08 5.34q0 5.76.33 12.8h-19.36q.65-11.66.65-22.03 0-10.37-.65-22.19 5.34.24 8.18.24 3 0 8.18-.24Z"></path>
    <rect width="40.26" height="44.47" x="-20.13" y="-22.235" fill="none" rx="0" ry="0" transform="matrix(1 0 0 1 449.285 61.645)"></rect>
    <path fill="#8264F6" d="m522.045 39.16-1.86 4.69q-7.7 20.5-16.12 39.53-4.37 9.72-12.64 15.6-8.26 5.87-20.73 5.62-1.54-6.72-2.55-10.48-1.02-3.77-2.64-7.58 4.46 1.05 8.35 1.05 6.31 0 10.04-2.67-2.92-8.67-6.88-18.63-3.97-9.96-11.51-27.13h19.2q.97 4.05 2.67 9.39 1.7 5.35 3.41 10.29.48 1.54 1.57 4.66 1.1 3.12 1.75 5.22l2.1-6.4q6.08-17.57 7.21-23.16Z"></path>
    <rect width="56.54" height="65.518" x="-28.27" y="-32.759" fill="none" rx="0" ry="0" transform="matrix(1 0 0 1 494.275 72.42)"></rect>
    <g paint-order="stroke">
        <g transform="matrix(.3398 0 0 .3398 55.49 60.576)">
            <linearGradient id="a" x1="0" x2="1" y1="0" y2="0" gradientUnits="objectBoundingBox">
                <stop offset="0%" stop-color="#ff6cab"></stop>
                <stop offset="100%" stop-color="#7366ff"></stop>
            </linearGradient>
            <ellipse fill="url(#a)" rx="140.58" ry="68" vector-effect="non-scaling-stroke"></ellipse>
        </g>
        <g transform="matrix(0 .3398 -.3398 0 56.59 59.867)">
            <linearGradient id="b" x1="0" x2="1" y1="0" y2="0" gradientUnits="objectBoundingBox">
                <stop offset="0%" stop-color="#ff6cab"></stop>
                <stop offset="100%" stop-color="#7366ff"></stop>
            </linearGradient>
            <ellipse fill="url(#b)" rx="140.58" ry="68" vector-effect="non-scaling-stroke"></ellipse>
        </g>
        <g transform="matrix(.2402 .2402 -.2402 .2402 55.97 59.609)">
            <linearGradient id="c" x1="0" x2="1" y1="0" y2="0" gradientUnits="objectBoundingBox">
                <stop offset="0%" stop-color="#ff6cab"></stop>
                <stop offset="100%" stop-color="#7366ff"></stop>
            </linearGradient>
            <ellipse fill="url(#c)" rx="140.58" ry="68" vector-effect="non-scaling-stroke"></ellipse>
        </g>
        <g transform="matrix(-.2402 .2402 -.2402 -.2402 56.852 60.496)">
            <linearGradient id="d" x1="0" x2="1" y1="0" y2="0" gradientUnits="objectBoundingBox">
                <stop offset="0%" stop-color="#ff6cab"></stop>
                <stop offset="100%" stop-color="#7366ff"></stop>
            </linearGradient>
            <ellipse fill="url(#d)" rx="140.58" ry="68" vector-effect="non-scaling-stroke"></ellipse>
        </g>
        <g transform="matrix(.1888 0 0 .1888 54.829 59.873)">
            <linearGradient id="e" x1="0" x2="1" y1="0" y2="0" gradientUnits="objectBoundingBox">
                <stop offset="0%" stop-color="#ff6cab"></stop>
                <stop offset="100%" stop-color="#7366ff"></stop>
            </linearGradient>
            <path fill="url(#e)" d="m100 0 13.53 50.24a51.4 51.4 0 0 0 36.24 36.24l50.24 13.53-50.24 13.53a51.4 51.4 0 0 0-36.24 36.24L100 200.02l-13.53-50.24a51.4 51.4 0 0 0-36.24-36.24L0 100l50.24-13.53a51.4 51.4 0 0 0 36.24-36.24z" transform="translate(-100.005 -100.01)" vector-effect="non-scaling-stroke"></path>
        </g>
    </g>
    <path fill="#7489FF" stroke="#E66BBA" stroke-width="2.764" d="M130.711.986v119.028"></path>
</svg></svg>