<svg xmlns="http://www.w3.org/2000/svg" xmlns:xlink="http://www.w3.org/1999/xlink" width="120" height="120" viewBox="0 0 120 120">
    <defs>
        <linearGradient id="a" x1="0" x2="1" y1="0" y2="0" gradientUnits="objectBoundingBox">
            <stop offset="0%" stop-color="#ff6cab"></stop>
            <stop offset="100%" stop-color="#7366ff"></stop>
        </linearGradient>
        <linearGradient id="b" x1="0" x2="1" y1="0" y2="0" gradientUnits="objectBoundingBox">
            <stop offset="0%" stop-color="#ff6cab"></stop>
            <stop offset="100%" stop-color="#7366ff"></stop>
        </linearGradient>
        <linearGradient id="c" x1="0" x2="1" y1="0" y2="0" gradientUnits="objectBoundingBox">
            <stop offset="0%" stop-color="#ff6cab"></stop>
            <stop offset="100%" stop-color="#7366ff"></stop>
        </linearGradient>
        <linearGradient id="d" x1="0" x2="1" y1="0" y2="0" gradientUnits="objectBoundingBox">
            <stop offset="0%" stop-color="#ff6cab"></stop>
            <stop offset="100%" stop-color="#7366ff"></stop>
        </linearGradient>
        <linearGradient id="e" x1="0" x2="1" y1="0" y2="0" gradientUnits="objectBoundingBox">
            <stop offset="0%" stop-color="#ff6cab"></stop>
            <stop offset="100%" stop-color="#7366ff"></stop>
        </linearGradient>
    </defs>

    <!-- Main ellipses -->
    <g transform="translate(60, 60)">
        <!-- Horizontal ellipse -->
        <ellipse fill="url(#a)" rx="47.8" ry="23.1" transform="matrix(1 0 0 1 0 0)"/>

        <!-- Vertical ellipse -->
        <ellipse fill="url(#b)" rx="47.8" ry="23.1" transform="matrix(0 1 -1 0 0 0)"/>

        <!-- Diagonal ellipse (top-left to bottom-right) -->
        <ellipse fill="url(#c)" rx="47.8" ry="23.1" transform="matrix(0.707 0.707 -0.707 0.707 0 0)"/>

        <!-- Diagonal ellipse (top-right to bottom-left) -->
        <ellipse fill="url(#d)" rx="47.8" ry="23.1" transform="matrix(-0.707 0.707 -0.707 -0.707 0 0)"/>

        <!-- Center star -->
        <g transform="scale(0.64)">
            <path fill="url(#e)" d="m0 -31.25 4.23 15.7a16.06 16.06 0 0 0 11.32 11.32l15.7 4.23-15.7 4.23a16.06 16.06 0 0 0-11.32 11.32L0 31.25l-4.23-15.7a16.06 16.06 0 0 0-11.32-11.32L-31.25 0l15.7-4.23a16.06 16.06 0 0 0 11.32-11.32z"/>
        </g>
    </g>
</svg>